<?xml version="1.0" encoding="UTF-8"?>
<svg id="Layer_3" data-name="Layer 3" xmlns="http://www.w3.org/2000/svg" viewBox="0 0 16.5 16.5">
  <g>
    <path d="M11.2,11.88c-.07-.21-.17-.19-.14-.41.01-.1.15-.2.21-.29.31-.48.29-1.43.04-1.93-.1-.21-.31-.3-.18-.57.06-.13.21-.25.28-.41.42-.88-.17-2.24-1.19-2.31-.2-.01-.49.08-.62-.09-.09-.12-.13-.27-.26-.42-.71-.79-1.9-.66-2.46.22-.1.15-.1.3-.33.31-.29.01-.4-.06-.71.06-.83.31-1.25,1.4-.9,2.2.08.18.22.29.3.43.14.26-.06.35-.16.54-.27.5-.29,1.49.02,1.97.05.08.2.2.21.29.02.17-.03.19-.09.32-.23.52-.4,1.15-.14,1.69h-.64c-.17-.63-.03-1.3.21-1.89-.5-.8-.49-1.93-.05-2.75-.13-.21-.23-.4-.3-.64-.25-.92.1-1.89.85-2.47-.1-.66-.13-1.38.11-2.01.36-.95,1.18-.94,1.57-.01.13.3.18.63.22.96.11-.04.21-.12.32-.16.53-.23,1.09-.23,1.62,0,.11.05.21.12.32.16.05-.58.32-1.72,1.09-1.65.35.03.58.41.7.71.24.63.21,1.36.11,2.01.94.71,1.24,2.11.55,3.11.43.83.38,1.74-.12,2.54M6.03,3.6c-.15.12-.22.32-.27.5-.1.37-.12.83-.08,1.21,0,.03.02.13.04.13.09-.02.19-.05.28-.07.08-.01.3,0,.35-.02.02,0,.09-.12.1-.15.04-.24-.03-.74-.09-.99-.06-.21-.15-.49-.34-.62ZM10.67,5.44c.05-.4.05-.8-.02-1.19-.04-.22-.13-.52-.32-.65-.23.2-.33.55-.38.85-.03.18-.07.58-.04.76,0,.03.08.14.1.15.06.02.27.01.35.02.11.01.21.05.31.07Z" fill="#3597d3"/>
    <g>
      <path d="M8.07,7.4c.89-.05,1.94.61,1.7,1.61-.18.76-1.01.94-1.69.92-2.16-.05-1.88-2.43-.01-2.53ZM7.23,8.16c-.62.61-.09,1.31.66,1.36.16.01.41.01.57,0,.85-.05,1.32-.86.57-1.45-.49-.39-1.35-.35-1.79.09Z" fill="#3597d3"/>
      <path d="M6.17,7.47c.34,0,.48.37.3.64-.26.4-.84.13-.7-.33.05-.17.21-.31.39-.31Z" fill="#3597d3"/>
      <circle cx="10.21" cy="7.89" r=".41" fill="#3597d3"/>
      <path d="M7.91,8.36c.15-.03.2.06.26.06.06,0,.15-.12.28-.05.2.11-.02.31-.13.39.05.22.05.4-.24.34-.15-.03-.08-.24-.07-.34-.01-.05-.2-.1-.21-.24,0-.06.04-.15.1-.16Z" fill="#3597d3"/>
    </g>
  </g>
  <g>
    <path d="M13,9.92c-1.57,0-2.86,1.19-3.04,2.71h1.06c.17-.91.97-1.6,1.93-1.6.11,0,.22.01.33.03v.71h1.39c.15,0,.26.12.26.26s-.12.26-.26.26h-1.39v1.39h1.39c.15,0,.26.12.26.26s-.12.26-.26.26h-1.39v.71c-.11.02-.22.03-.33.03-.96,0-1.76-.69-1.93-1.6h-1.06c.18,1.52,1.47,2.71,3.04,2.71,1.7,0,3.08-1.38,3.08-3.08s-1.38-3.08-3.08-3.08Z" fill="#3597d3"/>
    <path d="M11.33,15.02c-.94.43-1.99.67-3.09.67-4.11,0-7.44-3.33-7.44-7.44S4.13.8,8.24.8s7.44,3.33,7.44,7.44c0,.92-.17,1.81-.47,2.62" fill="none" stroke="#3597d3" stroke-linecap="round" stroke-linejoin="round" stroke-width=".75"/>
  </g>
</svg>